<svg width="83" height="83" viewBox="0 0 83 83" fill="none" xmlns="http://www.w3.org/2000/svg">
<g filter="url(#filter0_d_9_256)">
<g clip-path="url(#clip0_9_256)">
<rect x="4" width="75" height="75" rx="11" fill="white"/>
<path d="M35.0938 49.501C35.0938 48.1338 35.5576 46.9863 36.4854 46.0586C37.4619 45.082 38.6338 44.5938 40.001 44.5938H51.207L49.3027 39.1738C48.5215 37.1719 47.7402 35.292 46.959 33.5342C46.2266 31.7275 45.3721 30.0918 44.3955 28.627C43.5166 27.1621 42.5156 26.3809 41.3926 26.2832C40.2207 26.3809 39.1709 27.1621 38.2432 28.627C37.3154 30.0918 36.4609 31.7275 35.6797 33.5342C34.9473 35.292 34.1904 37.1719 33.4092 39.1738L26.4512 58.2168C25.9629 59.2422 25.3281 60.0967 24.5469 60.7803C23.8145 61.415 22.6914 61.7324 21.1777 61.7324C19.7617 61.7324 18.5898 61.2441 17.6621 60.2676C16.7832 59.291 16.3926 58.1191 16.4902 56.752C16.5391 56.1172 16.6855 55.5312 16.9297 54.9941L24.9863 34.1934C27.2324 28.7246 29.4785 24.3057 31.7246 20.9365C33.9219 17.6162 37.1445 15.9316 41.3926 15.8828C45.5918 15.9316 48.79 17.6162 50.9873 20.9365C53.2334 24.208 55.4795 28.627 57.7256 34.1934L65.7822 54.9941C66.0264 55.5312 66.1729 56.1172 66.2217 56.752C66.3193 58.1191 65.9043 59.291 64.9766 60.2676C64.0977 61.2441 62.9502 61.7324 61.5342 61.7324C59.9229 61.7324 58.7266 61.415 57.9453 60.7803C57.2129 60.0967 56.6025 59.2422 56.1143 58.2168L54.7227 54.4082H40.001C38.6338 54.4082 37.4863 53.9199 36.5586 52.9434C35.582 52.0156 35.0938 50.8682 35.0938 49.501Z" fill="#3F86FA"/>
</g>
</g>
<defs>
<filter id="filter0_d_9_256" x="0" y="0" width="83" height="83" filterUnits="userSpaceOnUse" color-interpolation-filters="sRGB">
<feFlood flood-opacity="0" result="BackgroundImageFix"/>
<feColorMatrix in="SourceAlpha" type="matrix" values="0 0 0 0 0 0 0 0 0 0 0 0 0 0 0 0 0 0 127 0" result="hardAlpha"/>
<feOffset dy="4"/>
<feGaussianBlur stdDeviation="2"/>
<feComposite in2="hardAlpha" operator="out"/>
<feColorMatrix type="matrix" values="0 0 0 0 0 0 0 0 0 0 0 0 0 0 0 0 0 0 0.25 0"/>
<feBlend mode="normal" in2="BackgroundImageFix" result="effect1_dropShadow_9_256"/>
<feBlend mode="normal" in="SourceGraphic" in2="effect1_dropShadow_9_256" result="shape"/>
</filter>
<clipPath id="clip0_9_256">
<rect x="4" width="75" height="75" rx="11" fill="white"/>
</clipPath>
</defs>
</svg>
